<svg width="24" height="24" viewBox="0 0 24 24" fill="none" xmlns="http://www.w3.org/2000/svg">
<path d="M9.89453 6.64136H13.1206M9.89453 10.3282H15.8857M9.89453 14.0151H15.8857" stroke="#4D9AD2" stroke-opacity="0.56" stroke-width="1.2" stroke-linecap="round" stroke-linejoin="round"/>
<path fill-rule="evenodd" clip-rule="evenodd" d="M20.8734 14.8099C20.9547 14.0113 20.9547 13.0114 20.9547 11.7493L20.9547 9.14693C20.9549 8.18101 20.955 7.55808 20.7869 6.96853C20.6948 6.64532 20.5658 6.33379 20.4024 6.0401C20.1043 5.50439 19.6638 5.06401 18.9806 4.38114L18.8369 4.23739C18.154 3.55425 17.7136 3.11368 17.1779 2.81564C16.8842 2.65224 16.5727 2.5232 16.2495 2.43107C15.6599 2.26302 15.037 2.26315 14.0711 2.26335L12.8896 2.26336V2.26536C12.0275 2.27053 11.3018 2.28905 10.6895 2.3554C9.81826 2.44979 9.09478 2.64756 8.47272 3.09952C8.10103 3.36956 7.77417 3.69642 7.50413 4.06811C7.21632 4.46425 7.03158 4.90151 6.91099 5.39186L6.15529 5.59435C3.81968 6.22018 2.43362 8.6209 3.05945 10.9565L5.0872 18.5242C5.71303 20.8598 8.11374 22.2458 10.4494 21.62L15.7912 20.1887C16.8115 19.9153 17.6505 19.3033 18.2198 18.5059C18.4998 18.4083 18.7617 18.2817 19.0089 18.1165C19.4869 17.7971 19.8974 17.3866 20.2168 16.9086C20.616 16.3111 20.7902 15.6281 20.8734 14.8099ZM14.0821 3.64597L13.9695 3.64594C12.5854 3.64596 11.6001 3.64741 10.8384 3.72994C10.0848 3.81158 9.63247 3.96587 9.28538 4.21805C9.03107 4.40282 8.80743 4.62646 8.62266 4.88077C8.37048 5.22786 8.21619 5.68021 8.13455 6.43378C8.0515 7.20028 8.05055 8.19317 8.05055 9.59105V11.711C8.05055 13.0199 8.05139 13.9496 8.12467 14.67C8.19678 15.3788 8.33327 15.808 8.5554 16.1404C8.77396 16.4675 9.05479 16.7484 9.38188 16.9669C9.71432 17.1891 10.1435 17.3255 10.8524 17.3977C11.5728 17.4709 12.5024 17.4718 13.8113 17.4718C15.1202 17.4718 16.0499 17.4709 16.7703 17.3977C17.4791 17.3255 17.9083 17.1891 18.2407 16.9669C18.5678 16.7484 18.8487 16.4675 19.0672 16.1404C19.2894 15.808 19.4258 15.3788 19.498 14.67C19.5712 13.9496 19.5721 13.0199 19.5721 11.711V9.4067C19.5721 8.95266 19.5706 8.68166 19.5445 8.48744C19.5325 8.39844 19.5184 8.35386 19.5102 8.33379C19.5083 8.32914 19.5068 8.32608 19.5058 8.3243L19.5046 8.32206L19.5023 8.32079C19.5005 8.31986 19.4975 8.31837 19.4928 8.31645C19.4728 8.30819 19.4282 8.2941 19.3392 8.28213C19.145 8.25602 18.874 8.25455 18.4199 8.25455L17.457 8.25455C17.058 8.2546 16.6923 8.25464 16.3947 8.21464C16.0671 8.17059 15.7207 8.06694 15.4359 7.78211C15.1511 7.49728 15.0474 7.15096 15.0034 6.82331C14.9634 6.52577 14.9634 6.16 14.9635 5.76106L14.9635 4.61375C14.9635 4.25273 14.9625 4.03749 14.9455 3.88028C14.9355 3.7878 14.9227 3.74991 14.918 3.73892C14.9046 3.72086 14.8886 3.70485 14.8705 3.69142C14.8595 3.68669 14.8216 3.67394 14.7291 3.66392C14.5849 3.6483 14.3918 3.64621 14.0821 3.64597ZM15.4599 18.846C14.9767 18.8544 14.442 18.8544 13.8496 18.8544H13.773C12.511 18.8544 11.511 18.8544 10.7124 18.7731C9.89427 18.6899 9.21124 18.5157 8.61376 18.1165C8.13571 17.7971 7.72525 17.3866 7.40583 16.9086C7.0066 16.3111 6.83242 15.6281 6.74919 14.8099C6.66795 14.0114 6.66796 13.0114 6.66797 11.7493V9.55004C6.66796 8.49819 6.66796 7.61683 6.71172 6.87661L6.51313 6.92982C4.91508 7.35802 3.96673 9.00062 4.39492 10.5987L6.42267 18.1663C6.85087 19.7644 8.49346 20.7127 10.0915 20.2845L15.4334 18.8532C15.4423 18.8508 15.4511 18.8484 15.4599 18.846ZM19.1942 6.71229C19.2263 6.77006 19.2565 6.82885 19.2848 6.88854C19.0385 6.8719 18.7591 6.87193 18.4612 6.87197L17.4982 6.87197C17.0442 6.87197 16.7732 6.8705 16.5789 6.84439C16.4899 6.83242 16.4454 6.81833 16.4253 6.81007C16.4206 6.80815 16.4176 6.80666 16.4158 6.80573L16.4136 6.80446L16.4123 6.80222C16.4114 6.80044 16.4099 6.79738 16.408 6.79273C16.3997 6.77266 16.3856 6.72808 16.3736 6.63908C16.3475 6.44486 16.3461 6.17386 16.3461 5.71982L16.3461 4.58122C16.3461 4.3491 16.3461 4.13093 16.3359 3.93631C16.3934 3.96365 16.45 3.99283 16.5057 4.02382C16.8519 4.21641 17.1516 4.5074 17.9311 5.28691C18.7106 6.06642 19.0016 6.36612 19.1942 6.71229Z" fill="#4D9AD2" fill-opacity="0.56"/>
</svg>
