<svg width="22" height="23" viewBox="0 0 22 23" fill="none" xmlns="http://www.w3.org/2000/svg">
<mask id="mask0_38_3" style="mask-type:alpha" maskUnits="userSpaceOnUse" x="0" y="0" width="22" height="23">
<rect y="0.860718" width="21.3923" height="21.3923" fill="#4D9AD2"/>
</mask>
<g mask="url(#mask0_38_3)">
<path d="M8.24496 20.4703L7.88842 17.618C7.6953 17.5437 7.51346 17.4546 7.34292 17.3506C7.17178 17.2466 7.00451 17.1352 6.84109 17.0164L4.18934 18.1305L1.73814 13.8967L4.03336 12.1585C4.0185 12.0545 4.01107 11.9541 4.01107 11.8573C4.01107 11.761 4.01107 11.6609 4.01107 11.5569C4.01107 11.4529 4.01107 11.3525 4.01107 11.2556C4.01107 11.1593 4.0185 11.0592 4.03336 10.9552L1.73814 9.2171L4.18934 4.98321L6.84109 6.09739C7.00451 5.97855 7.17535 5.86713 7.35362 5.76314C7.53189 5.65915 7.71015 5.57001 7.88842 5.49574L8.24496 2.64343H13.1474L13.5039 5.49574C13.697 5.57001 13.8792 5.65915 14.0503 5.76314C14.2208 5.86713 14.3878 5.97855 14.5512 6.09739L17.203 4.98321L19.6542 9.2171L17.359 10.9552C17.3738 11.0592 17.3812 11.1593 17.3812 11.2556C17.3812 11.3525 17.3812 11.4529 17.3812 11.5569C17.3812 11.6609 17.3812 11.761 17.3812 11.8573C17.3812 11.9541 17.3664 12.0545 17.3367 12.1585L19.6319 13.8967L17.1807 18.1305L14.5512 17.0164C14.3878 17.1352 14.217 17.2466 14.0387 17.3506C13.8604 17.4546 13.6822 17.5437 13.5039 17.618L13.1474 20.4703H8.24496ZM10.7407 14.6766C11.6024 14.6766 12.3377 14.372 12.9468 13.763C13.5559 13.1539 13.8604 12.4185 13.8604 11.5569C13.8604 10.6952 13.5559 9.95989 12.9468 9.3508C12.3377 8.74172 11.6024 8.43717 10.7407 8.43717C9.86424 8.43717 9.12502 8.74172 8.52306 9.3508C7.9217 9.95989 7.62102 10.6952 7.62102 11.5569C7.62102 12.4185 7.9217 13.1539 8.52306 13.763C9.12502 14.372 9.86424 14.6766 10.7407 14.6766ZM10.7407 12.8939C10.3693 12.8939 10.0538 12.7638 9.79412 12.5035C9.53385 12.2438 9.40371 11.9283 9.40371 11.5569C9.40371 11.1855 9.53385 10.87 9.79412 10.6103C10.0538 10.35 10.3693 10.2199 10.7407 10.2199C11.1121 10.2199 11.428 10.35 11.6882 10.6103C11.9479 10.87 12.0777 11.1855 12.0777 11.5569C12.0777 11.9283 11.9479 12.2438 11.6882 12.5035C11.428 12.7638 11.1121 12.8939 10.7407 12.8939ZM9.80481 18.6876H11.5652L11.8772 16.3256C12.3377 16.2067 12.765 16.032 13.1589 15.8015C13.5523 15.5715 13.9124 15.2931 14.2393 14.9663L16.4453 15.8799L17.3144 14.3646L15.398 12.9162C15.4723 12.7082 15.5243 12.4889 15.554 12.2584C15.5837 12.0284 15.5986 11.7946 15.5986 11.5569C15.5986 11.3192 15.5837 11.0851 15.554 10.8545C15.5243 10.6245 15.4723 10.4056 15.398 10.1976L17.3144 8.74915L16.4453 7.23386L14.2393 8.16977C13.9124 7.82809 13.5523 7.54197 13.1589 7.31141C12.765 7.08144 12.3377 6.90703 11.8772 6.78819L11.5875 4.42612H9.8271L9.51513 6.78819C9.0546 6.90703 8.62765 7.08144 8.23426 7.31141C7.84029 7.54197 7.47989 7.82066 7.15306 8.14749L4.94699 7.23386L4.07792 8.74915L5.99432 10.1753C5.92004 10.3981 5.86804 10.621 5.83833 10.8438C5.80862 11.0666 5.79376 11.3043 5.79376 11.5569C5.79376 11.7946 5.80862 12.0248 5.83833 12.2477C5.86804 12.4705 5.92004 12.6933 5.99432 12.9162L4.07792 14.3646L4.94699 15.8799L7.15306 14.944C7.47989 15.2857 7.84029 15.5715 8.23426 15.8015C8.62765 16.032 9.0546 16.2067 9.51513 16.3256L9.80481 18.6876Z" fill="#4D9AD2"/>
</g>
</svg>
