<svg width="52" height="52" viewBox="0 0 52 52" fill="none" xmlns="http://www.w3.org/2000/svg">
<g filter="url(#filter0_d_5_131)">
<path d="M16.75 20.5714C16.75 19.8282 16.7504 19.3101 16.7794 18.9051C16.8078 18.5073 16.8609 18.2763 16.9377 18.1002C17.1647 17.58 17.58 17.1647 18.1002 16.9377C18.2763 16.8609 18.5073 16.8078 18.9051 16.7794C19.3101 16.7504 19.8282 16.75 20.5714 16.75C21.3147 16.75 21.8327 16.7504 22.2377 16.7794C22.6356 16.8078 22.8666 16.8609 23.0426 16.9377C23.5629 17.1647 23.9781 17.58 24.2051 18.1002C24.2819 18.2763 24.3351 18.5073 24.3635 18.9051C24.3924 19.3101 24.3929 19.8282 24.3929 20.5714C24.3929 21.3147 24.3924 21.8327 24.3635 22.2377C24.3351 22.6356 24.2819 22.8666 24.2051 23.0426C23.9781 23.5629 23.5629 23.9781 23.0426 24.2051C22.8666 24.2819 22.6356 24.3351 22.2377 24.3635C21.8327 24.3924 21.3147 24.3929 20.5714 24.3929C19.8282 24.3929 19.3101 24.3924 18.9051 24.3635C18.5073 24.3351 18.2763 24.2819 18.1002 24.2051C17.58 23.9781 17.1647 23.5629 16.9377 23.0426C16.8609 22.8666 16.8078 22.6356 16.7794 22.2377C16.7504 21.8327 16.75 21.3147 16.75 20.5714Z" stroke="#4D9AD2" stroke-width="1.5"/>
<path d="M16.75 31.4286C16.75 30.6854 16.7504 30.1673 16.7794 29.7623C16.8078 29.3644 16.8609 29.1334 16.9377 28.9574C17.1647 28.4371 17.58 28.0219 18.1002 27.7949C18.2763 27.7181 18.5073 27.665 18.9051 27.6365C19.3101 27.6076 19.8282 27.6071 20.5714 27.6071C21.3147 27.6071 21.8327 27.6076 22.2377 27.6365C22.6356 27.665 22.8666 27.7181 23.0426 27.7949C23.5629 28.0219 23.9781 28.4371 24.2051 28.9574C24.2819 29.1334 24.3351 29.3644 24.3635 29.7623C24.3924 30.1673 24.3929 30.6854 24.3929 31.4286C24.3929 32.1718 24.3924 32.6899 24.3635 33.0949C24.3351 33.4927 24.2819 33.7237 24.2051 33.8998C23.9781 34.42 23.5629 34.8353 23.0426 35.0623C22.8666 35.1391 22.6356 35.1922 22.2377 35.2206C21.8327 35.2496 21.3147 35.25 20.5714 35.25C19.8282 35.25 19.3101 35.2496 18.9051 35.2206C18.5073 35.1922 18.2763 35.1391 18.1002 35.0623C17.58 34.8353 17.1647 34.42 16.9377 33.8998C16.8609 33.7237 16.8078 33.4927 16.7794 33.0949C16.7504 32.6899 16.75 32.1718 16.75 31.4286Z" stroke="#4D9AD2" stroke-width="1.5"/>
<path d="M27.6074 20.5714C27.6074 19.8282 27.6079 19.3101 27.6368 18.9051C27.6652 18.5073 27.7183 18.2763 27.7952 18.1002C28.0221 17.58 28.4374 17.1647 28.9577 16.9377C29.1337 16.8609 29.3647 16.8078 29.7625 16.7794C30.1676 16.7504 30.6856 16.75 31.4289 16.75C32.1721 16.75 32.6901 16.7504 33.0952 16.7794C33.493 16.8078 33.724 16.8609 33.9 16.9377C34.4203 17.1647 34.8356 17.58 35.0625 18.1002C35.1394 18.2763 35.1925 18.5073 35.2209 18.9051C35.2498 19.3101 35.2503 19.8282 35.2503 20.5714C35.2503 21.3147 35.2498 21.8327 35.2209 22.2377C35.1925 22.6356 35.1394 22.8666 35.0625 23.0426C34.8356 23.5629 34.4203 23.9781 33.9 24.2051C33.724 24.2819 33.493 24.3351 33.0952 24.3635C32.6901 24.3924 32.1721 24.3929 31.4289 24.3929C30.6856 24.3929 30.1676 24.3924 29.7625 24.3635C29.3647 24.3351 29.1337 24.2819 28.9577 24.2051C28.4374 23.9781 28.0221 23.5629 27.7952 23.0426C27.7183 22.8666 27.6652 22.6356 27.6368 22.2377C27.6079 21.8327 27.6074 21.3147 27.6074 20.5714Z" stroke="#4D9AD2" stroke-width="1.5"/>
<path d="M27.6074 31.4286C27.6074 30.6854 27.6079 30.1673 27.6368 29.7623C27.6652 29.3645 27.7183 29.1335 27.7952 28.9574C28.0221 28.4372 28.4374 28.0219 28.9577 27.7949C29.1337 27.7181 29.3647 27.665 29.7625 27.6366C30.1676 27.6076 30.6856 27.6072 31.4289 27.6072C32.1721 27.6072 32.6901 27.6076 33.0952 27.6366C33.493 27.665 33.724 27.7181 33.9 27.7949C34.4203 28.0219 34.8356 28.4372 35.0625 28.9574C35.1394 29.1335 35.1925 29.3645 35.2209 29.7623C35.2498 30.1673 35.2503 30.6854 35.2503 31.4286C35.2503 32.1718 35.2498 32.6899 35.2209 33.0949C35.1925 33.4927 35.1394 33.7237 35.0625 33.8998C34.8356 34.4201 34.4203 34.8353 33.9 35.0623C33.724 35.1391 33.493 35.1922 33.0952 35.2207C32.6901 35.2496 32.1721 35.25 31.4289 35.25C30.6856 35.25 30.1676 35.2496 29.7625 35.2207C29.3647 35.1922 29.1337 35.1391 28.9577 35.0623C28.4374 34.8353 28.0221 34.4201 27.7952 33.8998C27.7183 33.7237 27.6652 33.4927 27.6368 33.0949C27.6079 32.6899 27.6074 32.1718 27.6074 31.4286Z" stroke="#4D9AD2" stroke-width="1.5"/>
</g>
<defs>
<filter id="filter0_d_5_131" x="-2" y="-2" width="56" height="56" filterUnits="userSpaceOnUse" color-interpolation-filters="sRGB">
<feFlood flood-opacity="0" result="BackgroundImageFix"/>
<feColorMatrix in="SourceAlpha" type="matrix" values="0 0 0 0 0 0 0 0 0 0 0 0 0 0 0 0 0 0 127 0" result="hardAlpha"/>
<feOffset/>
<feGaussianBlur stdDeviation="8"/>
<feComposite in2="hardAlpha" operator="out"/>
<feColorMatrix type="matrix" values="0 0 0 0 1 0 0 0 0 1 0 0 0 0 1 0 0 0 1 0"/>
<feBlend mode="overlay" in2="BackgroundImageFix" result="effect1_dropShadow_5_131"/>
<feBlend mode="normal" in="SourceGraphic" in2="effect1_dropShadow_5_131" result="shape"/>
</filter>
</defs>
</svg>
